<svg xmlns="http://www.w3.org/2000/svg" style="border: 0 !important; clip: rect(0 0 0 0) !important; height: 1px !important; margin: -1px !important; overflow: hidden !important; padding: 0 !important; position: absolute !important; width: 1px !important;" class="root-svg-symbols-element">
    <symbol id="cart" viewBox="0 0 21 27">
      <path clip-rule="evenodd" d="M1.16673 9.9C1.14893 8.59317 2.19325 7.51901 3.50006 7.5H17.5001C18.8069 7.51901 19.8512 8.59317 19.8334 9.9V20.7C19.8697 23.314 17.7807 25.4627 15.1667 25.5H5.83339C3.21945 25.4627 1.13039 23.314 1.16673 20.7V9.9Z" stroke="#fff" stroke-width="1.5" stroke-linecap="round" stroke-linejoin="round"/><path d="M15.1667 11.1V6.3C15.203 3.68604 13.114 1.53729 10.5 1.5C7.88608 1.53729 5.79701 3.68604 5.83335 6.3V11.1" stroke="#fff" stroke-width="1.5" stroke-linecap="round" stroke-linejoin="round"/>
    </symbol>
    <symbol id="close" viewBox="0 0 12 12">
      <path d="M1 11L11 1M1 1L11 11" stroke="#0A2A3C" stroke-width="2"/>
    </symbol>
    <symbol id="loop" viewBox="0 0 20 21">
      <path d="M9.19314 19.142C4.18518 19.142 0.10791 15.0647 0.10791 10.0568C0.10791 5.04883 4.18518 0.971558 9.19314 0.971558C14.2011 0.971558 18.2784 5.04883 18.2784 10.0568C18.2784 15.0647 14.2011 19.142 9.19314 19.142ZM9.19314 2.3011C4.912 2.3011 1.43746 5.78451 1.43746 10.0568C1.43746 14.3291 4.912 17.8125 9.19314 17.8125C13.4743 17.8125 16.9488 14.3291 16.9488 10.0568C16.9488 5.78451 13.4743 2.3011 9.19314 2.3011Z" fill="#231815"/><path d="M18.4999 20.0283C18.3315 20.0283 18.163 19.9662 18.0301 19.8333L16.2574 18.0606C16.0003 17.8035 16.0003 17.3781 16.2574 17.121C16.5144 16.864 16.9399 16.864 17.1969 17.121L18.9696 18.8937C19.2267 19.1508 19.2267 19.5762 18.9696 19.8333C18.8367 19.9662 18.6683 20.0283 18.4999 20.0283Z" fill="#231815"/>
    </symbol>
    <symbol id="search-normal" viewBox="0 0 22 23">
      <path d="M10.1931 20.142C5.18518 20.142 1.10791 16.0647 1.10791 11.0568C1.10791 6.04883 5.18518 1.97156 10.1931 1.97156C15.2011 1.97156 19.2784 6.04883 19.2784 11.0568C19.2784 16.0647 15.2011 20.142 10.1931 20.142ZM10.1931 3.3011C5.912 3.3011 2.43746 6.78451 2.43746 11.0568C2.43746 15.3291 5.912 18.8125 10.1931 18.8125C14.4743 18.8125 17.9488 15.3291 17.9488 11.0568C17.9488 6.78451 14.4743 3.3011 10.1931 3.3011Z" fill="#231815"/><path d="M19.5 21.0284C19.3316 21.0284 19.1632 20.9664 19.0302 20.8334L17.2575 19.0607C17.0004 18.8036 17.0004 18.3782 17.2575 18.1211C17.5145 17.8641 17.94 17.8641 18.197 18.1211L19.9698 19.8939C20.2268 20.1509 20.2268 20.5764 19.9698 20.8334C19.8368 20.9664 19.6684 21.0284 19.5 21.0284Z" fill="#231815"/>
    </symbol>
    <symbol id="search" viewBox="0 0 20 21">
      <path d="M9.19314 19.142C4.18518 19.142 0.10791 15.0647 0.10791 10.0568C0.10791 5.04883 4.18518 0.971558 9.19314 0.971558C14.2011 0.971558 18.2784 5.04883 18.2784 10.0568C18.2784 15.0647 14.2011 19.142 9.19314 19.142ZM9.19314 2.3011C4.912 2.3011 1.43746 5.78451 1.43746 10.0568C1.43746 14.3291 4.912 17.8125 9.19314 17.8125C13.4743 17.8125 16.9488 14.3291 16.9488 10.0568C16.9488 5.78451 13.4743 2.3011 9.19314 2.3011Z" fill="#231815"/><path d="M18.4999 20.0283C18.3315 20.0283 18.163 19.9662 18.0301 19.8333L16.2574 18.0606C16.0003 17.8035 16.0003 17.3781 16.2574 17.121C16.5144 16.864 16.9399 16.864 17.1969 17.121L18.9696 18.8937C19.2267 19.1508 19.2267 19.5762 18.9696 19.8333C18.8367 19.9662 18.6683 20.0283 18.4999 20.0283Z" fill="#231815"/>
    </symbol>
    <symbol id="up" viewBox="0 0 13 15">
      <path d="M6.5 2V13.25M6.5 2L2 5.5M6.5 2L11 5.5" stroke="#fff" stroke-width="2" stroke-linecap="square"/>
    </symbol>
    <symbol id="vector" viewBox="0 0 21 27">
      <path clip-rule="evenodd" d="M1.16673 9.9C1.14893 8.59317 2.19325 7.51901 3.50006 7.5H17.5001C18.8069 7.51901 19.8512 8.59317 19.8334 9.9V20.7C19.8697 23.314 17.7807 25.4627 15.1667 25.5H5.83339C3.21945 25.4627 1.13039 23.314 1.16673 20.7V9.9Z" stroke="#fff" stroke-width="1.5" stroke-linecap="round" stroke-linejoin="round"/><path d="M15.1667 11.1V6.3C15.203 3.68604 13.114 1.53729 10.5 1.5C7.88608 1.53729 5.79701 3.68604 5.83335 6.3V11.1" stroke="#fff" stroke-width="1.5" stroke-linecap="round" stroke-linejoin="round"/>
    </symbol></svg>