<svg width="217" height="57" viewBox="0 0 217 57" fill="none" xmlns="http://www.w3.org/2000/svg">
<path d="M48.0305 56.3837H8.35314C3.72259 56.3837 0 52.6611 0 48.0305V8.35315C0 3.72261 3.72259 0 8.35314 0H48.0305C52.6611 0 56.3837 3.72261 56.3837 8.35315V48.0305C56.3837 52.6611 52.5703 56.3837 48.0305 56.3837Z" fill="#231815"/>
<path d="M27.7833 18.2499C27.7833 18.2499 33.3218 14.8905 36.6812 12.9838C40.0406 11.0771 41.9473 10.4415 43.854 10.26C45.7607 10.1692 47.9398 11.1679 47.9398 11.1679L41.8565 7.35451C41.8565 7.35451 41.0394 6.80974 38.7695 7.08213C36.4996 7.35451 35.3193 7.99008 33.8666 8.71644C32.4139 9.53359 22.6988 15.2537 22.6988 15.2537L27.7833 18.2499Z" fill="white"/>
<path d="M42.3104 15.7075C42.3104 15.7075 45.125 19.6117 42.9459 26.5121C40.7669 33.4125 35.6823 37.3167 35.3192 37.5891C35.0468 37.8615 31.869 39.6774 31.869 39.6774L31.9597 45.1251C31.9597 45.1251 42.1288 41.5841 46.3962 31.7782C50.2095 23.1527 47.7581 18.5221 45.8514 16.5247C44.7618 15.3443 42.3104 15.7075 42.3104 15.7075Z" fill="white"/>
<path d="M27.7833 45.0343L22.6988 42.0381V15.3444L27.7833 18.2498V45.0343Z" fill="white"/>
<path d="M12.2573 37.226L7.17279 34.1389V7.53601L12.1665 10.3507L12.2573 37.226Z" fill="white"/>
<path d="M7.1728 34.139C7.1728 34.139 5.90167 45.3976 15.072 49.4834C20.3381 51.8441 24.2423 50.4821 26.0582 48.6662C27.5109 47.2135 27.6925 45.0344 27.6925 45.0344L22.6079 41.9474C22.6079 41.9474 22.6079 43.037 21.7908 43.8541C20.8828 44.8529 19.4301 45.8516 16.1615 44.2173C11.9849 42.0382 12.1665 37.2261 12.1665 37.2261L7.1728 34.139Z" fill="white"/>
<path d="M12.1666 10.3506L16.2524 8.26236L11.6218 5.72009L7.17288 7.53599L12.1666 10.3506Z" fill="white"/>
<path d="M211.916 43.4908H213.913V43.9448H213.096V46.0331H212.642V43.9448H211.825L211.916 43.4908Z" fill="#231815"/>
<path d="M214.276 43.4908H214.821L215.638 45.1252L216.455 43.4908H217V46.0331H216.546V44.2172L215.729 45.7607H215.457L214.639 44.2172V46.0331H214.276V43.4908Z" fill="#231815"/>
<path d="M209.192 43.6724C209.192 44.5804 209.192 45.3067 209.192 46.2147C205.469 46.2147 201.747 46.2147 198.115 46.2147C195.391 46.2147 195.391 46.2147 195.391 48.8478C195.391 52.7519 195.391 52.7519 199.204 52.7519C201.202 52.7519 203.199 52.6611 205.106 52.7519C206.559 52.8427 207.013 52.298 206.831 50.936C206.74 50.1189 206.831 49.2109 206.831 48.2122C207.739 48.2122 208.556 48.2122 209.646 48.2122C209.646 49.7557 209.737 51.2084 209.646 52.7519C209.555 54.2954 208.556 55.2034 207.103 55.2942C203.108 55.385 199.204 55.385 195.209 55.2942C193.393 55.2942 192.485 54.1139 192.485 52.298C192.485 50.4821 192.485 48.5754 192.485 46.7595C192.485 44.762 193.393 43.7632 195.3 43.6724C199.931 43.5816 204.47 43.6724 209.192 43.6724Z" fill="#231815"/>
<path d="M68.4597 24.4238H71.2743V33.1401C71.2743 33.3217 71.4559 33.5033 71.6375 33.5033H82.6237C82.8053 33.5033 82.9869 33.3217 82.9869 33.1401V24.4238H85.8923C85.8923 27.6017 85.9831 30.6887 85.8923 33.7757C85.8923 35.2284 84.8936 36.1364 83.5316 36.1364C79.1735 36.2272 75.2693 36.2272 70.8203 36.1364C69.3676 36.1364 68.4597 35.1376 68.4597 33.5941C68.3689 30.5979 68.4597 27.5109 68.4597 24.4238Z" fill="#231815"/>
<path d="M131.835 43.6724H134.649V52.2071C134.649 52.3887 134.831 52.5703 135.012 52.5703H147.724V55.2033C147.724 55.2033 135.194 55.2033 135.103 55.2033C132.561 55.2033 131.744 54.2046 131.744 51.9347C131.835 49.4832 131.835 46.3962 131.835 43.6724Z" fill="#231815"/>
<path d="M168.425 43.7633C169.333 43.7633 170.059 43.7633 171.058 43.7633C171.058 47.5767 171.058 51.3901 171.058 55.2943C170.241 55.2943 169.424 55.2943 168.425 55.2943C168.425 51.3901 168.425 47.6675 168.425 43.7633Z" fill="#231815"/>
<path d="M125.751 30.0532C125.751 30.0532 126.205 29.3268 126.205 28.9637C126.75 26.7846 125.933 24.5147 123.754 24.4239C118.851 24.2423 113.948 24.3331 108.863 24.3331C108.863 28.2373 108.863 32.0507 108.863 36.0457C113.494 36.0457 118.034 36.0457 122.573 36.0457C126.114 36.0457 126.659 33.4126 126.114 30.9612C126.114 30.6888 125.751 30.0532 125.751 30.0532ZM122.755 33.4126L111.95 33.5034V31.3243C111.95 31.3243 120.758 31.3243 122.755 31.3243C122.937 31.3243 123.118 31.5059 123.118 31.6875V33.0494C123.118 33.231 122.937 33.4126 122.755 33.4126ZM122.755 29.1453L111.95 29.2361V27.057C111.95 27.057 120.758 27.057 122.755 27.057C122.937 27.057 123.118 27.2386 123.118 27.4202V28.7821C123.118 28.9637 122.937 29.1453 122.755 29.1453Z" fill="#231815"/>
<path d="M141.55 26.6029C140.642 24.787 139.28 24.4238 137.464 24.4238C135.557 24.4238 134.286 24.787 133.378 26.6029C133.378 26.6029 129.928 32.777 127.93 36.1364H131.471L136.374 27.2385C136.465 27.1477 136.556 27.0569 136.738 27.0569H138.372C138.463 27.0569 138.644 27.1477 138.735 27.2385L143.638 36.1364C143.638 36.1364 146.271 36.1364 147.179 36.1364C145 32.777 141.459 26.6029 141.55 26.6029Z" fill="#231815"/>
<path d="M165.701 24.4239H162.705C162.705 27.3294 162.705 30.2348 162.705 33.5034C162.705 33.5034 162.251 33.5942 161.615 33.0495C160.072 31.5967 156.622 27.4202 156.168 26.9662C156.168 26.9662 156.168 26.8754 156.077 26.8754C155.804 26.5122 155.532 26.2398 155.441 26.149C154.352 25.0595 153.716 24.5147 151.719 24.3331H149.086C149.086 27.8741 149.086 32.5047 149.086 36.0457H152.082C152.082 33.1403 152.082 30.2348 152.082 26.9662C152.082 26.9662 152.536 26.8754 153.171 27.4202C154.715 28.8729 158.165 33.0495 158.619 33.5034C158.619 33.5034 158.619 33.5942 158.71 33.5942C158.982 33.9574 159.255 34.2298 159.345 34.3206C160.435 35.4101 161.071 35.9549 163.068 36.1365H165.701C165.701 32.5955 165.701 27.9649 165.701 24.4239Z" fill="#231815"/>
<path d="M85.8014 45.9424C85.8014 44.5805 84.8027 43.7633 83.2592 43.7633C81.6249 43.7633 79.8998 43.7633 78.2655 43.7633C74.906 43.7633 71.5466 43.7633 68.1872 43.7633C68.1872 47.6675 68.1872 51.3901 68.1872 55.2943C71.4558 55.2943 74.5429 55.2943 77.6299 55.2943C79.5366 55.2943 81.4433 55.2943 83.2592 55.2943C84.7119 55.2943 85.7106 54.3863 85.8014 53.1152C85.8014 52.5704 85.8014 46.4871 85.8014 45.9424ZM82.9868 47.4859V51.5717V52.3888C82.9868 52.5704 82.8052 52.752 82.6236 52.752H71.365C71.1835 52.752 71.0019 52.5704 71.0019 52.3888V46.7595C71.0019 46.5779 71.1835 46.3964 71.365 46.3964H82.8052C82.9868 46.3964 82.9868 46.5779 82.9868 46.7595V47.4859Z" fill="#231815"/>
<path d="M190.125 43.6723H187.129C187.129 46.5778 187.129 49.4832 187.129 52.7518C187.129 52.7518 186.675 52.8426 186.039 52.2979C184.496 50.8451 181.045 46.6686 180.591 46.2146C180.591 46.2146 180.591 46.2146 180.501 46.1238C180.228 45.7606 179.956 45.4882 179.865 45.3974C178.776 44.3079 178.14 43.7631 176.142 43.5815H173.509C173.509 47.1225 173.509 51.7531 173.509 55.2941H176.506C176.506 52.3887 176.506 49.4832 176.506 46.2146C176.506 46.2146 176.96 46.1238 177.595 46.6686C179.139 48.1213 182.589 52.2979 183.043 52.7518C183.043 52.7518 183.043 52.7518 183.134 52.8426C183.406 53.2058 183.678 53.4782 183.769 53.569C184.859 54.6585 185.494 55.2033 187.492 55.3849H190.125C190.125 51.8439 190.125 47.2133 190.125 43.6723Z" fill="#231815"/>
<path d="M108.046 43.6724C107.592 46.1238 106.866 49.3016 106.321 51.7531C106.23 52.2979 106.049 52.6611 105.595 52.6611C105.05 52.6611 105.05 52.2979 104.778 51.7531C104.778 51.7531 102.962 46.941 102.054 44.8527C101.691 44.0355 101.146 43.6724 100.329 43.6724C99.9656 43.6724 99.6024 43.6724 99.33 43.6724H99.2392H99.1484C98.876 43.6724 98.5129 43.6724 98.1497 43.6724C97.3325 43.6724 96.7877 44.0355 96.4246 44.8527C95.5166 46.941 93.7007 51.7531 93.7007 51.7531C93.5191 52.2979 93.4283 52.6611 92.8836 52.6611C92.4296 52.6611 92.248 52.2979 92.1572 51.7531C91.6124 49.2109 90.9769 46.1238 90.4321 43.6724C89.3426 43.6724 88.4346 43.6724 87.3451 43.6724C88.0714 46.8502 88.7978 49.8464 89.4333 52.7519C89.7057 54.023 90.0689 55.2941 91.7032 55.2033C92.4296 55.2033 93.4283 55.2033 94.1547 55.2033C95.0626 55.2033 95.5166 54.5678 95.9706 53.2966L98.6036 46.3054C98.876 45.5791 98.9668 45.4883 99.1484 45.4883C99.33 45.4883 99.5116 45.5791 99.6932 46.3054L102.326 53.2966C102.78 54.5678 103.234 55.2033 104.142 55.2033C104.868 55.2033 105.776 55.2033 106.594 55.2033C108.228 55.2033 108.591 54.023 108.863 52.7519C109.499 49.8464 110.225 46.7594 110.952 43.6724C110.044 43.6724 109.136 43.6724 108.046 43.6724Z" fill="#231815"/>
<path d="M128.384 48.4845H115.401C115.128 48.4845 114.947 48.3029 114.947 48.1213V46.7594C114.947 46.5778 115.128 46.3962 115.401 46.3962C117.58 46.3962 126.024 46.3962 128.384 46.3962H129.02C129.02 45.4883 129.02 44.6711 129.02 43.7632C124.026 43.7632 119.123 43.6724 114.129 43.854C112.041 43.9448 111.496 45.8515 111.496 48.2121C111.496 48.5753 111.496 50.1188 111.496 50.482C111.496 52.9335 111.678 55.4757 115.219 55.4757C119.759 55.4757 124.298 55.4757 128.929 55.4757C128.929 54.5678 128.929 53.6598 128.929 52.8427H115.31C115.037 52.8427 114.856 52.6611 114.856 52.4795V50.936C114.856 50.7544 115.037 50.5728 115.31 50.5728C117.761 50.5728 128.929 50.5728 128.929 50.5728C128.929 49.8464 128.929 49.1201 128.929 48.4845H128.384Z" fill="#231815"/>
<path d="M149.812 43.6724H152.627V52.2071C152.627 52.3887 152.808 52.5703 152.99 52.5703H165.701V55.2033C165.701 55.2033 153.171 55.2033 153.081 55.2033C150.538 55.2033 149.721 54.2046 149.721 51.9347C149.812 49.4832 149.812 46.3962 149.812 43.6724Z" fill="#231815"/>
<path d="M101.327 31.5967H102.689C105.141 31.5059 105.413 30.2347 105.413 28.0557C105.413 26.0582 104.868 24.6054 102.599 24.5146H90.7044H87.9806V36.2272H90.7044V31.6875H97.3325L102.235 36.2272H106.049C106.049 36.1364 101.327 31.5967 101.327 31.5967ZM90.7952 29.1452V26.9661C91.5216 26.9661 99.7839 26.9661 101.691 26.9661C101.872 26.9661 102.054 27.1477 102.054 27.3293V28.6912C102.054 28.8728 101.872 29.0544 101.691 29.0544L90.7952 29.1452Z" fill="#231815"/>
</svg>
